<?xml version="1.0" encoding="UTF-8" standalone="no"?>
<!-- Generator: Adobe Illustrator 19.0.0, SVG Export Plug-In . SVG Version: 6.00 Build 0)  -->

<svg
   xmlns:dc="http://purl.org/dc/elements/1.1/"
   xmlns:cc="http://creativecommons.org/ns#"
   xmlns:rdf="http://www.w3.org/1999/02/22-rdf-syntax-ns#"
   xmlns:svg="http://www.w3.org/2000/svg"
   xmlns="http://www.w3.org/2000/svg"
   xmlns:sodipodi="http://sodipodi.sourceforge.net/DTD/sodipodi-0.dtd"
   xmlns:inkscape="http://www.inkscape.org/namespaces/inkscape"
   version="1.1"
   id="Layer_1"
   x="0px"
   y="0px"
   viewBox="0 0 28.125 28.125"
   xml:space="preserve"
   width="48"
   height="48"
   inkscape:version="0.91 r13725"
   sodipodi:docname="airplane.svg"><metadata
     id="metadata43"><rdf:RDF><cc:Work
         rdf:about=""><dc:format>image/svg+xml</dc:format><dc:type
           rdf:resource="http://purl.org/dc/dcmitype/StillImage" /><dc:title /></cc:Work></rdf:RDF></metadata><defs
     id="defs41" /><sodipodi:namedview
     pagecolor="#ffffff"
     bordercolor="#666666"
     borderopacity="1"
     objecttolerance="10"
     gridtolerance="10"
     guidetolerance="10"
     inkscape:pageopacity="0"
     inkscape:pageshadow="2"
     inkscape:window-width="1323"
     inkscape:window-height="711"
     id="namedview39"
     showgrid="false"
     inkscape:zoom="5.2149126"
     inkscape:cx="14.976544"
     inkscape:cy="11.086311"
     inkscape:window-x="43"
     inkscape:window-y="27"
     inkscape:window-maximized="1"
     inkscape:current-layer="Layer_1" /><g
     id="g3"
     transform="matrix(0.09375187,0,0,0.09375187,-2.8084051e-4,-2.8084051e-4)"><g
       id="g5"><path
         d="M 149.997,0 C 67.158,0 0.003,67.161 0.003,149.997 0.003,232.833 67.158,300 149.997,300 c 82.839,0 150,-67.163 150,-150.003 C 299.997,67.157 232.837,0 149.997,0 Z m 72.981,99.461 -32.435,30.711 20.562,82.844 -12.27,12.27 -39.262,-64.028 -0.905,-0.905 -40.385,38.24 c -0.228,0.231 -0.485,0.405 -0.718,0.622 l -1.297,29.481 -44.965,-44.962 29.471,-1.294 c 0.218,-0.239 0.394,-0.493 0.625,-0.724 l 38.24,-40.387 -0.325,-0.329 -64.601,-39.832 12.27,-12.27 82.471,20.946 31.079,-32.827 c 6.201,-6.201 16.251,-6.199 22.447,0 6.197,6.198 6.197,16.246 -0.002,22.444 z"
         id="path7"
         style="fill:#fa6e4f;fill-opacity:1"
         inkscape:connector-curvature="0" /></g></g><g
     id="g9"
     transform="translate(0,-271.87499)" /><g
     id="g11"
     transform="translate(0,-271.87499)" /><g
     id="g13"
     transform="translate(0,-271.87499)" /><g
     id="g15"
     transform="translate(0,-271.87499)" /><g
     id="g17"
     transform="translate(0,-271.87499)" /><g
     id="g19"
     transform="translate(0,-271.87499)" /><g
     id="g21"
     transform="translate(0,-271.87499)" /><g
     id="g23"
     transform="translate(0,-271.87499)" /><g
     id="g25"
     transform="translate(0,-271.87499)" /><g
     id="g27"
     transform="translate(0,-271.87499)" /><g
     id="g29"
     transform="translate(0,-271.87499)" /><g
     id="g31"
     transform="translate(0,-271.87499)" /><g
     id="g33"
     transform="translate(0,-271.87499)" /><g
     id="g35"
     transform="translate(0,-271.87499)" /><g
     id="g37"
     transform="translate(0,-271.87499)" /></svg>