<?xml version="1.0" encoding="UTF-8" standalone="no"?>
<!-- Generator: Adobe Illustrator 19.0.0, SVG Export Plug-In . SVG Version: 6.00 Build 0)  -->

<svg
   xmlns:dc="http://purl.org/dc/elements/1.1/"
   xmlns:cc="http://creativecommons.org/ns#"
   xmlns:rdf="http://www.w3.org/1999/02/22-rdf-syntax-ns#"
   xmlns:svg="http://www.w3.org/2000/svg"
   xmlns="http://www.w3.org/2000/svg"
   xmlns:sodipodi="http://sodipodi.sourceforge.net/DTD/sodipodi-0.dtd"
   xmlns:inkscape="http://www.inkscape.org/namespaces/inkscape"
   version="1.1"
   id="Layer_1"
   x="0px"
   y="0px"
   viewBox="0 0 28.124812 28.124812"
   xml:space="preserve"
   width="48"
   height="48"
   inkscape:version="0.91 r13725"
   sodipodi:docname="group.svg"><metadata
     id="metadata43"><rdf:RDF><cc:Work
         rdf:about=""><dc:format>image/svg+xml</dc:format><dc:type
           rdf:resource="http://purl.org/dc/dcmitype/StillImage" /><dc:title /></cc:Work></rdf:RDF></metadata><defs
     id="defs41" /><sodipodi:namedview
     pagecolor="#ffffff"
     bordercolor="#666666"
     borderopacity="1"
     objecttolerance="10"
     gridtolerance="10"
     guidetolerance="10"
     inkscape:pageopacity="0"
     inkscape:pageshadow="2"
     inkscape:window-width="1323"
     inkscape:window-height="711"
     id="namedview39"
     showgrid="false"
     inkscape:zoom="2.6074563"
     inkscape:cx="-15.836701"
     inkscape:cy="-3.3282561"
     inkscape:window-x="43"
     inkscape:window-y="27"
     inkscape:window-maximized="1"
     inkscape:current-layer="Layer_1" /><g
     id="g3"
     transform="matrix(0.09375093,0,0,0.09375093,-9.3509894e-5,-1.4038536e-4)"><g
       id="g5"><path
         d="M 149.997,0 C 67.157,0 0.001,67.158 0.001,149.995 c 0,82.837 67.156,150.003 149.995,150.003 82.839,0 150,-67.163 150,-150.003 C 299.996,67.155 232.836,0 149.997,0 Z M 40.732,206.496 c 0,-46.858 41.152,-46.848 50.284,-59.1 l 1.045,-5.587 c -12.83,-6.505 -21.887,-22.178 -21.887,-40.514 0,-24.154 15.712,-43.738 35.089,-43.738 15.258,0 28.205,12.164 33.037,29.118 -19.41,6.168 -33.768,27.214 -33.768,52.232 0,17.224 6.79,33.06 17.937,43.121 -1.79,0.918 -3.781,1.854 -5.493,2.656 -8.989,4.217 -21.449,10.079 -30.438,21.812 l -45.806,0 z m 109.721,37.609 0,-0.002 -0.916,0 -64.071,0 c 0,-46.856 41.152,-46.843 50.284,-59.095 l 1.045,-5.587 c -12.83,-6.505 -21.887,-22.178 -21.887,-40.514 0,-24.154 15.712,-43.738 35.089,-43.738 19.377,0 35.089,19.584 35.089,43.738 0,18.178 -8.896,33.758 -21.555,40.361 l 1.19,6.352 c 10.019,11.658 49.802,12.418 49.802,58.485 l -64.07,0 z m 62.999,-37.607 0,-0.002 0,0 C 204.46,194.765 192,188.904 183.011,184.687 c -1.769,-0.83 -3.73,-1.751 -5.483,-2.651 11.137,-10.074 17.935,-25.944 17.935,-43.129 0,-25.015 -14.353,-46.057 -33.758,-52.227 4.829,-16.957 17.776,-29.121 33.037,-29.121 19.379,0 35.089,19.584 35.089,43.738 0,18.178 -8.896,33.756 -21.555,40.361 l 1.19,6.352 c 10.019,11.656 49.802,12.415 49.802,58.488 l -45.816,0 z"
         id="path7"
         inkscape:connector-curvature="0"
         style="fill:#5a8bac;fill-opacity:1" /></g></g><g
     id="g9"
     transform="translate(0,-271.87317)" /><g
     id="g11"
     transform="translate(0,-271.87317)" /><g
     id="g13"
     transform="translate(0,-271.87317)" /><g
     id="g15"
     transform="translate(0,-271.87317)" /><g
     id="g17"
     transform="translate(0,-271.87317)" /><g
     id="g19"
     transform="translate(0,-271.87317)" /><g
     id="g21"
     transform="translate(0,-271.87317)" /><g
     id="g23"
     transform="translate(0,-271.87317)" /><g
     id="g25"
     transform="translate(0,-271.87317)" /><g
     id="g27"
     transform="translate(0,-271.87317)" /><g
     id="g29"
     transform="translate(0,-271.87317)" /><g
     id="g31"
     transform="translate(0,-271.87317)" /><g
     id="g33"
     transform="translate(0,-271.87317)" /><g
     id="g35"
     transform="translate(0,-271.87317)" /><g
     id="g37"
     transform="translate(0,-271.87317)" /></svg>