<?xml version="1.0" encoding="UTF-8" standalone="no"?>
<!-- Generator: Adobe Illustrator 16.0.0, SVG Export Plug-In . SVG Version: 6.00 Build 0)  -->

<svg
   xmlns:dc="http://purl.org/dc/elements/1.1/"
   xmlns:cc="http://creativecommons.org/ns#"
   xmlns:rdf="http://www.w3.org/1999/02/22-rdf-syntax-ns#"
   xmlns:svg="http://www.w3.org/2000/svg"
   xmlns="http://www.w3.org/2000/svg"
   xmlns:sodipodi="http://sodipodi.sourceforge.net/DTD/sodipodi-0.dtd"
   xmlns:inkscape="http://www.inkscape.org/namespaces/inkscape"
   version="1.1"
   id="Capa_1"
   x="0px"
   y="0px"
   width="48"
   height="48"
   viewBox="0 0 2.34375 2.34375"
   xml:space="preserve"
   inkscape:version="0.91 r13725"
   sodipodi:docname="law.svg"><metadata
     id="metadata41"><rdf:RDF><cc:Work
         rdf:about=""><dc:format>image/svg+xml</dc:format><dc:type
           rdf:resource="http://purl.org/dc/dcmitype/StillImage" /><dc:title></dc:title></cc:Work></rdf:RDF></metadata><defs
     id="defs39" /><sodipodi:namedview
     pagecolor="#ffffff"
     bordercolor="#666666"
     borderopacity="1"
     objecttolerance="10"
     gridtolerance="10"
     guidetolerance="10"
     inkscape:pageopacity="0"
     inkscape:pageshadow="2"
     inkscape:window-width="1323"
     inkscape:window-height="711"
     id="namedview37"
     showgrid="false"
     inkscape:zoom="0.4609375"
     inkscape:cx="-351.45763"
     inkscape:cy="256"
     inkscape:window-x="43"
     inkscape:window-y="27"
     inkscape:window-maximized="1"
     inkscape:current-layer="Capa_1" /><g
     id="g3"
     transform="scale(0.09375,0.09375)"><path
       d="m 14.867,15.429 c -0.258,0.12 -0.495,0.146 -0.621,0.021 -0.133,-0.133 -0.102,-0.381 0.031,-0.65 l -1.452,-1.454 c -0.27,0.136 -0.519,0.166 -0.65,0.035 -0.136,-0.137 -0.098,-0.399 0.05,-0.682 l -1.42,1.42 c 0.089,0.31 0.078,0.554 -0.059,0.688 -0.215,0.217 -0.704,0.12 -1.312,-0.205 0.327,0.606 0.424,1.096 0.207,1.312 -0.245,0.244 -0.836,0.089 -1.559,-0.349 0.067,0.168 0.08,0.297 0.019,0.358 C 7.887,16.137 6.918,15.516 5.936,14.532 4.954,13.55 4.332,12.581 4.545,12.366 4.607,12.304 4.735,12.318 4.904,12.385 4.466,11.662 4.31,11.072 4.555,10.826 4.771,10.61 5.259,10.706 5.867,11.034 5.541,10.426 5.444,9.936 5.66,9.721 5.796,9.584 6.039,9.575 6.349,9.663 L 9.66,6.352 C 9.571,6.04 9.582,5.797 9.718,5.662 9.935,5.445 10.424,5.542 11.032,5.869 10.704,5.262 10.607,4.772 10.824,4.556 c 0.243,-0.244 0.833,-0.09 1.555,0.348 -0.065,-0.17 -0.081,-0.299 -0.018,-0.36 0.214,-0.215 1.186,0.409 2.168,1.393 0.984,0.982 1.607,1.954 1.394,2.169 -0.063,0.063 -0.19,0.047 -0.36,-0.019 0.437,0.723 0.591,1.312 0.348,1.556 -0.218,0.216 -0.706,0.119 -1.313,-0.208 0.327,0.609 0.424,1.097 0.207,1.313 -0.136,0.136 -0.379,0.147 -0.688,0.058 l -1.104,1.104 c 0.282,-0.147 0.546,-0.186 0.681,-0.049 0.131,0.129 0.101,0.377 -0.031,0.647 l 1.452,1.454 c 0.271,-0.132 0.521,-0.163 0.651,-0.032 0.125,0.127 0.101,0.364 -0.021,0.621 l 6.545,5.707 C 23.982,18.125 25,15.434 25,12.499 25,5.597 19.404,0 12.499,0 5.595,0 0,5.597 0,12.499 0,19.402 5.595,25 12.499,25 c 3.097,0 5.922,-1.131 8.104,-2.993 l -5.736,-6.578 z"
       id="path5"
       inkscape:connector-curvature="0"
       style="fill:#2d4052" /></g><g
     id="g7"
     transform="translate(0,-22.656251)" /><g
     id="g9"
     transform="translate(0,-22.656251)" /><g
     id="g11"
     transform="translate(0,-22.656251)" /><g
     id="g13"
     transform="translate(0,-22.656251)" /><g
     id="g15"
     transform="translate(0,-22.656251)" /><g
     id="g17"
     transform="translate(0,-22.656251)" /><g
     id="g19"
     transform="translate(0,-22.656251)" /><g
     id="g21"
     transform="translate(0,-22.656251)" /><g
     id="g23"
     transform="translate(0,-22.656251)" /><g
     id="g25"
     transform="translate(0,-22.656251)" /><g
     id="g27"
     transform="translate(0,-22.656251)" /><g
     id="g29"
     transform="translate(0,-22.656251)" /><g
     id="g31"
     transform="translate(0,-22.656251)" /><g
     id="g33"
     transform="translate(0,-22.656251)" /><g
     id="g35"
     transform="translate(0,-22.656251)" /></svg>