<?xml version="1.0" encoding="UTF-8" standalone="no"?>
<!-- Created with Inkscape (http://www.inkscape.org/) -->

<svg
   xmlns:dc="http://purl.org/dc/elements/1.1/"
   xmlns:cc="http://creativecommons.org/ns#"
   xmlns:rdf="http://www.w3.org/1999/02/22-rdf-syntax-ns#"
   xmlns:svg="http://www.w3.org/2000/svg"
   xmlns="http://www.w3.org/2000/svg"
   xmlns:sodipodi="http://sodipodi.sourceforge.net/DTD/sodipodi-0.dtd"
   xmlns:inkscape="http://www.inkscape.org/namespaces/inkscape"
   width="48"
   height="48"
   viewBox="0 0 48 48.000001"
   id="svg2"
   version="1.1"
   inkscape:version="0.91 r13725"
   sodipodi:docname="logo.gis.svg">
  <defs
     id="defs4" />
  <sodipodi:namedview
     id="base"
     pagecolor="#ffffff"
     bordercolor="#666666"
     borderopacity="1.0"
     inkscape:pageopacity="0.0"
     inkscape:pageshadow="2"
     inkscape:zoom="2.8"
     inkscape:cx="48.770109"
     inkscape:cy="26.890235"
     inkscape:document-units="px"
     inkscape:current-layer="layer1"
     showgrid="false"
     inkscape:window-width="1323"
     inkscape:window-height="711"
     inkscape:window-x="43"
     inkscape:window-y="27"
     inkscape:window-maximized="1"
     units="px" />
  <metadata
     id="metadata7">
    <rdf:RDF>
      <cc:Work
         rdf:about="">
        <dc:format>image/svg+xml</dc:format>
        <dc:type
           rdf:resource="http://purl.org/dc/dcmitype/StillImage" />
        <dc:title></dc:title>
      </cc:Work>
    </rdf:RDF>
  </metadata>
  <g
     inkscape:label="Layer 1"
     inkscape:groupmode="layer"
     id="layer1"
     transform="translate(0,-1004.3622)">
    <g
       id="g4195"
       transform="matrix(0.12634925,0,0,0.12634925,16.068737,911.50239)">
      <path
         sodipodi:nodetypes="cscsc"
         inkscape:connector-curvature="0"
         id="path4147"
         d="m 24.28571,735.21935 c 0,0 37.46018,79.89048 -44.28571,158.57143 -80.90941,77.87584 21.42857,172.14282 21.42857,172.14282 0,0 -23.57143,-68.57139 34.28571,-144.99997 C 94.7827,842.90496 24.28571,735.21935 24.28571,735.21935 Z"
         style="fill:#2ca02c;fill-rule:evenodd;stroke:#005500;stroke-width:1px;stroke-linecap:butt;stroke-linejoin:miter;stroke-opacity:1" />
      <path
         sodipodi:nodetypes="cscsc"
         inkscape:connector-curvature="0"
         id="path4149"
         d="m 67.85714,793.07649 c 0,0 35.00001,72.85715 -22.14285,155 -57.14286,82.14281 15.71428,165.00001 15.71428,165.00001 0,0 -14.62838,-68.4638 30.71428,-149.28572 C 134.8116,887.73501 67.85714,793.07649 67.85714,793.07649 Z"
         style="fill:#165016;fill-rule:evenodd;stroke:#005500;stroke-width:1px;stroke-linecap:butt;stroke-linejoin:miter;stroke-opacity:1" />
      <path
         sodipodi:nodetypes="cscssc"
         inkscape:connector-curvature="0"
         id="path4151"
         d="m 106.42857,845.93364 c 0,0 33.57143,59.99999 7.85714,121.42856 -25.71428,61.4286 -25.71428,109.2857 -25.71428,109.2857 0,0 18.03085,-24.0193 38.64562,-47.7928 22.2885,-25.7037 46.61395,-39.86871 49.21152,-67.20718 5.14277,-54.12566 -70,-115.71428 -70,-115.71428 z"
         style="fill:#2ca02c;fill-rule:evenodd;stroke:#005500;stroke-width:1px;stroke-linecap:butt;stroke-linejoin:miter;stroke-opacity:1" />
    </g>
  </g>
</svg>
